<?xml version="1.0" encoding="UTF-8" standalone="no"?>
<svg
   xmlns:dc="http://purl.org/dc/elements/1.1/"
   xmlns:cc="http://creativecommons.org/ns#"
   xmlns:rdf="http://www.w3.org/1999/02/22-rdf-syntax-ns#"
   xmlns:svg="http://www.w3.org/2000/svg"
   xmlns="http://www.w3.org/2000/svg"
   id="svg1481"
   version="1.1"
   viewBox="0 0 119.56 21.24">
  <metadata
     id="metadata1485">
    <rdf:RDF>
      <cc:Work
         rdf:about="">
        <dc:format>image/svg+xml</dc:format>
        <dc:type
           rdf:resource="http://purl.org/dc/dcmitype/StillImage" />
        <dc:title></dc:title>
      </cc:Work>
    </rdf:RDF>
  </metadata>
  <defs
     id="defs1315">
    <style
       id="style1313">.cls-1{fill:#b5b5b6;}.cls-2,.cls-4{fill:#fff;}.cls-3{fill:#0086d1;}.cls-4{stroke:#999;}</style>
  </defs>
  <g
     data-name="レイヤー2"
     id="レイヤー2">
    <g
       id="layer1">
      <polygon
         id="polygon1319"
         points="11.24 10.4 10.47 8.48 10.47 8.48 8.57 7.71 8.57 7.71 8.56 7.71 8.56 7.71 8.56 7.71 6.62 8.44 6.62 8.44 5.89 10.4 5.89 10.4 5.89 10.4 5.89 10.4 5.89 10.4 6.62 12.36 6.62 12.36 8.56 13.09 8.56 13.09 8.56 13.09 8.57 13.09 8.57 13.09 10.46 12.31 10.46 12.31 11.24 10.4 11.24 10.4 11.24 10.4 11.24 10.4 11.24 10.4"
         class="cls-1" />
      <polygon
         id="polygon1321"
         points="4.28 5.38 4.28 5.38 4.28 0 2.45 4.26 4.28 5.38"
         class="cls-2" />
      <polygon
         id="polygon1323"
         points="2.45 4.26 0.82 6.1 4.28 5.38 2.45 4.26"
         class="cls-1" />
      <polygon
         id="polygon1325"
         points="4.28 5.38 4.28 5.38 4.28 5.38 4.28 5.38"
         class="cls-3" />
      <polygon
         id="polygon1327"
         points="4.28 5.38 4.28 5.38 0.82 6.1 0 10.4 4.28 5.38 4.28 5.38"
         class="cls-2" />
      <polygon
         id="polygon1329"
         points="0 10.4 4.28 10.4 4.28 5.38 0 10.4"
         class="cls-1" />
      <rect
         id="rect1331"
         transform="translate(-2.55 4.62) rotate(-45.1)"
         y="5.38"
         x="4.28"
         class="cls-3" />
      <polygon
         id="polygon1333"
         points="4.28 5.38 4.28 10.4 5.52 7.35 4.28 5.38 4.28 5.38"
         class="cls-1" />
      <polygon
         id="polygon1335"
         points="4.28 5.38 5.52 7.35 8.56 6.1 4.28 5.38 4.28 5.38"
         class="cls-1" />
      <polygon
         id="polygon1337"
         points="4.28 5.38 8.56 1.8 4.28 0 4.28 5.38 4.28 5.38"
         class="cls-1" />
      <polygon
         id="polygon1339"
         points="8.56 6.1 8.56 1.8 4.28 5.38 8.56 6.1"
         class="cls-1" />
      <polygon
         id="polygon1341"
         points="13.66 5.66 13.66 5.66 13.49 2.87 8.56 1.8 13.66 5.66"
         class="cls-2" />
      <polygon
         id="polygon1343"
         points="8.56 1.8 8.56 6.1 13.66 5.66 8.56 1.8"
         class="cls-1" />
      <polygon
         id="polygon1345"
         points="13.66 5.66 13.66 5.66 13.66 5.66 13.66 5.66"
         class="cls-3" />
      <polygon
         id="polygon1347"
         points="13.66 5.66 13.66 5.66 8.56 6.1 11.69 7.26 13.66 5.66 13.66 5.66"
         class="cls-1" />
      <polygon
         id="polygon1349"
         points="11.69 7.26 12.85 10.4 13.66 5.66 11.69 7.26"
         class="cls-1" />
      <rect
         id="rect1351"
         transform="translate(0.01 11.34) rotate(-45.1)"
         y="5.66"
         x="13.66"
         class="cls-3" />
      <polygon
         id="polygon1353"
         points="13.66 5.66 12.85 10.4 17.13 10.12 13.66 5.66 13.66 5.66"
         class="cls-1" />
      <polygon
         id="polygon1355"
         points="13.66 5.66 17.13 4.66 13.49 2.87 13.66 5.66 13.66 5.66"
         class="cls-2" />
      <polyline
         id="polyline1357"
         points="13.66 5.66 13.66 5.66 17.13 10.12 17.13 4.66 13.66 5.66"
         class="cls-2" />
      <polygon
         id="polygon1359"
         points="4.28 15.41 4.28 15.41 4.28 10.4 0 10.4 4.28 15.41"
         class="cls-1" />
      <polygon
         id="polygon1361"
         points="0 10.4 0.82 14.7 4.28 15.41 0 10.4"
         class="cls-2" />
      <polygon
         id="polygon1363"
         points="4.28 15.41 4.28 15.41 4.28 15.41 4.28 15.41"
         class="cls-3" />
      <polygon
         id="polygon1365"
         points="4.28 15.41 4.28 15.41 0.82 14.7 2.48 16.5 4.28 15.41 4.28 15.41"
         class="cls-2" />
      <polygon
         id="polygon1367"
         points="2.48 16.5 4.28 17.91 4.28 15.41 2.48 16.5"
         class="cls-2" />
      <rect
         id="rect1369"
         transform="translate(-9.66 7.57) rotate(-45.1)"
         y="15.41"
         x="4.28"
         class="cls-3" />
      <polygon
         id="polygon1371"
         points="4.28 15.41 4.28 17.91 8.56 18.99 4.28 15.41 4.28 15.41"
         class="cls-2" />
      <polygon
         id="polygon1373"
         points="4.28 15.41 8.56 18.99 8.56 14.7 4.28 15.41 4.28 15.41"
         class="cls-1" />
      <polygon
         id="polygon1375"
         points="4.28 15.41 5.54 13.44 4.28 10.4 4.28 15.41 4.28 15.41"
         class="cls-1" />
      <polygon
         id="polygon1377"
         points="8.56 14.7 5.54 13.44 4.28 15.41 8.56 14.7"
         class="cls-1" />
      <polygon
         id="polygon1379"
         points="13.48 17.2 13.48 17.2 12.85 10.4 11.56 13.4 13.48 17.2"
         class="cls-1" />
      <polygon
         id="polygon1381"
         points="11.56 13.4 8.56 14.7 13.48 17.2 11.56 13.4"
         class="cls-1" />
      <polygon
         id="polygon1383"
         points="13.48 17.2 13.48 17.2 13.48 17.2 13.48 17.2"
         class="cls-3" />
      <polygon
         id="polygon1385"
         points="13.48 17.2 13.48 17.2 8.56 14.7 8.56 18.99 13.48 17.2 13.48 17.2"
         class="cls-1" />
      <rect
         id="rect1387"
         transform="translate(-8.22 14.6) rotate(-45.1)"
         y="17.2"
         x="13.48"
         class="cls-3" />
      <polygon
         id="polygon1389"
         points="13.48 17.2 17.13 10.12 12.85 10.4 13.48 17.2 13.48 17.2"
         class="cls-1" />
      <polygon
         id="polygon1391"
         points="17.13 21.24 17.13 10.12 13.48 17.2 17.13 21.24"
         class="cls-2" />
      <polygon
         id="polygon1393"
         points="23.02 10.4 23.78 8.48 23.78 8.48 25.69 7.71 25.69 7.71 25.69 7.71 25.7 7.71 25.7 7.71 27.64 8.44 27.64 8.44 28.37 10.4 28.37 10.4 28.37 10.4 28.37 10.4 28.37 10.4 27.64 12.36 27.64 12.36 25.7 13.09 25.7 13.09 25.69 13.09 25.69 13.09 25.69 13.09 23.79 12.31 23.79 12.31 23.02 10.4 23.02 10.4 23.02 10.4 23.02 10.4 23.02 10.4"
         class="cls-1" />
      <polygon
         id="polygon1395"
         points="29.98 5.38 29.98 5.38 29.98 0 31.81 4.26 29.98 5.38"
         class="cls-2" />
      <polygon
         id="polygon1397"
         points="31.81 4.26 33.44 6.1 29.98 5.38 31.81 4.26"
         class="cls-1" />
      <polygon
         id="polygon1399"
         points="29.98 5.38 29.98 5.38 29.98 5.38 29.98 5.38"
         class="cls-3" />
      <polygon
         id="polygon1401"
         points="29.98 5.38 29.98 5.38 33.44 6.1 34.26 10.4 29.98 5.38 29.98 5.38"
         class="cls-2" />
      <polygon
         id="polygon1403"
         points="34.26 10.4 29.98 10.4 29.98 5.38 34.26 10.4"
         class="cls-1" />
      <rect
         id="rect1405"
         transform="translate(4.94 22.73) rotate(-44.9)"
         y="5.38"
         x="29.98"
         class="cls-3" />
      <polygon
         id="polygon1407"
         points="29.98 5.38 29.98 10.4 28.73 7.35 29.98 5.38 29.98 5.38"
         class="cls-1" />
      <polygon
         id="polygon1409"
         points="29.98 5.38 28.73 7.35 25.69 6.1 29.98 5.38 29.98 5.38"
         class="cls-1" />
      <polygon
         id="polygon1411"
         points="29.98 5.38 25.69 1.8 29.98 0 29.98 5.38 29.98 5.38"
         class="cls-1" />
      <polygon
         id="polygon1413"
         points="25.69 6.1 25.69 1.8 29.98 5.38 25.69 6.1"
         class="cls-1" />
      <polygon
         id="polygon1415"
         points="20.6 5.66 20.6 5.66 20.76 2.87 25.69 1.8 20.6 5.66"
         class="cls-2" />
      <polygon
         id="polygon1417"
         points="25.69 1.8 25.69 6.1 20.6 5.66 25.69 1.8"
         class="cls-1" />
      <polygon
         id="polygon1419"
         points="20.6 5.66 20.6 5.66 20.6 5.66 20.6 5.66"
         class="cls-3" />
      <polygon
         id="polygon1421"
         points="20.6 5.66 20.6 5.66 25.69 6.1 22.57 7.26 20.6 5.66 20.6 5.66"
         class="cls-1" />
      <polygon
         id="polygon1423"
         points="22.57 7.26 21.41 10.4 20.6 5.66 22.57 7.26"
         class="cls-1" />
      <rect
         id="rect1425"
         transform="translate(2.01 16.19) rotate(-44.9)"
         y="5.66"
         x="20.6"
         class="cls-3" />
      <polygon
         id="polygon1427"
         points="20.6 5.66 21.41 10.4 17.13 10.12 20.6 5.66 20.6 5.66"
         class="cls-1" />
      <polygon
         id="polygon1429"
         points="20.6 5.66 17.13 4.66 20.76 2.87 20.6 5.66 20.6 5.66"
         class="cls-2" />
      <polyline
         id="polyline1431"
         points="20.6 5.66 20.6 5.66 17.13 10.12 17.13 4.66 20.6 5.66"
         class="cls-2" />
      <polygon
         id="polygon1433"
         points="29.98 15.41 29.98 15.41 29.98 10.4 34.26 10.4 29.98 15.41"
         class="cls-1" />
      <polygon
         id="polygon1435"
         points="34.26 10.4 33.44 14.7 29.98 15.41 34.26 10.4"
         class="cls-2" />
      <polygon
         id="polygon1437"
         points="29.98 15.41 29.98 15.41 29.98 15.41 29.98 15.41"
         class="cls-3" />
      <polygon
         id="polygon1439"
         points="29.98 15.41 29.98 15.41 33.44 14.7 31.78 16.5 29.98 15.41 29.98 15.41"
         class="cls-2" />
      <polygon
         id="polygon1441"
         points="31.78 16.5 29.98 17.91 29.98 15.41 31.78 16.5"
         class="cls-2" />
      <rect
         id="rect1443"
         transform="translate(-2.14 25.66) rotate(-44.9)"
         y="15.41"
         x="29.98"
         class="cls-3" />
      <polygon
         id="polygon1445"
         points="29.98 15.41 29.98 17.91 25.69 18.99 29.98 15.41 29.98 15.41"
         class="cls-2" />
      <polygon
         id="polygon1447"
         points="29.98 15.41 25.69 18.99 25.69 14.7 29.98 15.41 29.98 15.41"
         class="cls-1" />
      <polygon
         id="polygon1449"
         points="29.98 15.41 28.72 13.44 29.98 10.4 29.98 15.41 29.98 15.41"
         class="cls-1" />
      <polygon
         id="polygon1451"
         points="25.69 14.7 28.72 13.44 29.98 15.41 25.69 14.7"
         class="cls-1" />
      <polygon
         id="polygon1453"
         points="20.72 17.2 20.72 17.2 21.41 10.4 22.7 13.4 20.72 17.2"
         class="cls-1" />
      <polygon
         id="polygon1455"
         points="22.7 13.4 25.69 14.7 20.72 17.2 22.7 13.4"
         class="cls-1" />
      <polygon
         id="polygon1457"
         points="20.72 17.2 20.72 17.2 20.72 17.2 20.72 17.2"
         class="cls-3" />
      <polygon
         id="polygon1459"
         points="20.72 17.2 20.72 17.2 25.69 14.7 25.69 18.99 20.72 17.2 20.72 17.2"
         class="cls-1" />
      <rect
         id="rect1461"
         transform="translate(-6.1 19.64) rotate(-44.9)"
         y="17.2"
         x="20.72"
         class="cls-3" />
      <polygon
         id="polygon1463"
         points="20.72 17.2 17.13 10.12 21.41 10.4 20.72 17.2 20.72 17.2"
         class="cls-1" />
      <polygon
         id="polygon1465"
         points="17.13 21.24 17.13 10.12 20.72 17.2 17.13 21.24"
         class="cls-2" />
      <path
         id="path1467"
         d="M65.89,5.37,63.45,6l-1,.76-.92,1L61,10.25l.47,2.44.94,1,1,.8,2.44.61,2.43-.64,2.43.64V5.37L68.32,6ZM67.59,12l-1.7.73L64.17,12l-.72-1.72.71-1.73,1.73-.71,1.77.66.66,1.78Z"
         class="cls-4" />
      <path
         id="path1469"
         d="M83.54,7.81l-.92-1L81.57,6l-2.43-.63h0L76.71,6l-2.43-.6V15.56h0v4.88h2.43V18h0V15.56h0V14.49l2.43.64h0l2.43-.61,1-.8.94-1L84,10.25ZM80.86,12l-1.72.72h0L77.44,12l-.73-1.71.66-1.78,1.77-.66h0l1.73.71.7,1.73Z"
         class="cls-4" />
      <polygon
         id="polygon1471"
         points="41.5 15.13 43.93 15.13 43.93 12.69 43.93 12.69 43.93 12.69 43.93 10.25 44.59 8.47 46.36 7.81 48.09 8.52 48.79 10.25 48.79 10.25 48.79 12.69 48.79 15.13 51.23 15.13 51.23 12.69 51.23 12.69 51.23 10.25 51.23 10.25 51.23 10.25 51.96 8.52 53.69 7.81 55.46 8.47 56.12 10.25 56.12 10.25 56.12 12.69 56.12 12.69 56.12 12.69 56.12 12.69 56.12 12.69 56.12 15.13 58.55 15.13 58.55 12.69 58.55 12.69 58.55 10.25 58.55 7.81 57.35 6.76 56.12 6 56.12 5.97 53.69 5.37 51.25 6 50.02 6.29 48.79 6 46.36 5.37 43.93 5.97 41.5 5.37 41.5 15.13"
         class="cls-4" />
      <path
         id="path1473"
         d="M103.52,6l-2.43-.6h0L98.66,6l-1,.76-.92,1-.47,2.44.47,2.44.94,1,1,.8,2.43.61h0l2.43-.64,2.44.64V5.37Zm-.73,6-1.7.73h0L99.37,12l-.71-1.72.7-1.73,1.73-.71h0l1.78.66.65,1.78Z"
         class="cls-4" />
      <polygon
         id="polygon1475"
         points="91.46 5.37 89.03 5.97 86.6 5.37 86.6 7.81 86.6 10.25 86.6 12.69 86.6 15.13 89.03 15.13 89.03 12.69 89.03 10.25 89.69 8.47 91.46 7.81 93.19 8.52 94.06 7.64 94.06 7.64 94.94 6.76 93.89 6 91.46 5.37"
         class="cls-4" />
      <polygon
         id="polygon1477"
         points="116.62 5.97 116.62 7.81 116.62 7.81 116.62 7.81 116.62 10.25 115.89 11.96 114.19 12.69 114.19 12.69 114.19 12.69 112.47 11.97 111.76 10.25 111.76 10.25 111.76 7.81 111.76 7.81 111.76 7.81 111.76 5.97 109.32 5.37 109.32 7.81 109.32 10.25 109.79 12.69 110.73 13.72 111.76 14.52 114.19 15.13 114.19 15.13 114.19 15.13 116.62 14.49 116.62 15.56 115.95 17.34 114.17 18 114.17 18 114.17 18 112.44 17.29 111.64 18.1 111.64 18.1 110.7 19.05 111.74 19.81 114.17 20.44 114.17 20.44 114.17 20.44 114.17 20.44 114.17 20.44 114.17 20.44 116.6 19.81 117.65 19.05 118.57 18 119.06 15.56 119.06 15.56 119.06 15.13 119.06 12.69 119.06 10.25 119.06 7.81 119.06 5.37 116.62 5.97"
         class="cls-4" />
    </g>
  </g>
</svg>
