{
  "accessors": [
    {
      "bufferView": 2,
      "componentType": 5126,
      "count": 14062,
      "max": [
        315.350830078125,
        169.76860046386719,
        113.69124603271484
      ],
      "min": [
        -19.701515197753906,
        -129.2379150390625,
        -113.69124603271484
      ],
      "type": "VEC3"
    },
    {
      "bufferView": 2,
      "byteOffset": 168744,
      "componentType": 5126,
      "count": 14062,
      "max": [
        1,
        1,
        1
      ],
      "min": [
        -1,
        -1,
        -1
      ],
      "type": "VEC3"
    },
    {
      "bufferView": 3,
      "componentType": 5126,
      "count": 14062,
      "max": [
        1,
        1,
        1,
        1
      ],
      "min": [
        -1,
        -1,
        -1,
        1
      ],
      "type": "VEC4"
    },
    {
      "bufferView": 1,
      "componentType": 5126,
      "count": 14062,
      "max": [
        0.99999982118606567,
        1
      ],
      "min": [
        0,
        0
      ],
      "type": "VEC2"
    },
    {
      "bufferView": 0,
      "componentType": 5125,
      "count": 33612,
      "max": [
        14061
      ],
      "min": [
        0
      ],
      "type": "SCALAR"
    },
    {
      "bufferView": 2,
      "byteOffset": 337488,
      "componentType": 5126,
      "count": 112,
      "max": [
        73.373191833496094,
        97.8333740234375,
        89.173500061035156
      ],
      "min": [
        -12.800477981567383,
        -39.593936920166016,
        -89.173500061035156
      ],
      "type": "VEC3"
    },
    {
      "bufferView": 2,
      "byteOffset": 338832,
      "componentType": 5126,
      "count": 112,
      "max": [
        1,
        1,
        1
      ],
      "min": [
        -1,
        -1,
        -1
      ],
      "type": "VEC3"
    },
    {
      "bufferView": 3,
      "byteOffset": 224992,
      "componentType": 5126,
      "count": 112,
      "max": [
        1,
        1,
        0.19509050250053406,
        1
      ],
      "min": [
        -1,
        -1,
        -0.19509050250053406,
        -1
      ],
      "type": "VEC4"
    },
    {
      "bufferView": 0,
      "byteOffset": 134448,
      "componentType": 5125,
      "count": 228,
      "max": [
        111
      ],
      "min": [
        0
      ],
      "type": "SCALAR"
    }
  ],
  "asset": {
    "extras": {
      "author": "Renafox (https://sketchfab.com/kryik1023)",
      "license": "CC-BY-4.0 (http://creativecommons.org/licenses/by/4.0/)",
      "source": "https://sketchfab.com/models/33e925207e134652bd8c2465e5c16957",
      "title": "Truck WIP"
    },
    "generator": "Sketchfab-3.19.6",
    "version": "2.0"
  },
  "bufferViews": [
    {
      "buffer": 0,
      "byteLength": 135360,
      "byteOffset": 0,
      "name": "floatBufferViews",
      "target": 34963
    },
    {
      "buffer": 0,
      "byteLength": 112496,
      "byteOffset": 135360,
      "byteStride": 8,
      "name": "floatBufferViews",
      "target": 34962
    },
    {
      "buffer": 0,
      "byteLength": 340176,
      "byteOffset": 247856,
      "byteStride": 12,
      "name": "floatBufferViews",
      "target": 34962
    },
    {
      "buffer": 0,
      "byteLength": 226784,
      "byteOffset": 588032,
      "byteStride": 16,
      "name": "floatBufferViews",
      "target": 34962
    }
  ],
  "buffers": [
    {
      "byteLength": 814816,
      "uri": "scene.bin"
    }
  ],
  "images": [
    {
      "uri": "textures/Material_45_metallicRoughness.png"
    },
    {
      "uri": "textures/Material_45_baseColor.png"
    }
  ],
  "materials": [
    {
      "alphaMode": "BLEND",
      "doubleSided": false,
      "name": "RootNode",
      "pbrMetallicRoughness": {
        "baseColorFactor": [
          1,
          1,
          1,
          0.29999999999999999
        ],
        "metallicFactor": 1,
        "roughnessFactor": 0
      }
    },
    {
      "doubleSided": true,
      "emissiveFactor": [
        0,
        0,
        0
      ],
      "name": "Material_45",
      "occlusionTexture": {
        "index": 0,
        "strength": 1,
        "texCoord": 0
      },
      "pbrMetallicRoughness": {
        "baseColorFactor": [
          0,
          1,
          1,
          1
        ],
        "baseColorTexture": {
          "index": 1,
          "texCoord": 0
        },
        "metallicFactor": 0,
        "roughnessFactor": 1
      }
    }
  ],
  "meshes": [
    {
      "name": "Box002_Material #45_0",
      "primitives": [
        {
          "attributes": {
            "NORMAL": 1,
            "POSITION": 0,
            "TANGENT": 2,
            "TEXCOORD_0": 3
          },
          "indices": 4,
          "material": 1,
          "mode": 4
        }
      ]
    },
    {
      "name": "Object001__0",
      "primitives": [
        {
          "attributes": {
            "NORMAL": 6,
            "POSITION": 5,
            "TANGENT": 7
          },
          "indices": 8,
          "material": 0,
          "mode": 4
        }
      ]
    }
  ],
  "nodes": [
    {
      "children": [
        1
      ],
      "name": "RootNode (gltf orientation matrix)",
      "rotation": [
        -0.70710678118654746,
        -0,
        -0,
        0.70710678118654757
      ]
    },
    {
      "children": [
        2
      ],
      "name": "RootNode (model correction matrix)"
    },
    {
      "children": [
        3
      ],
      "matrix": [
        1,
        0,
        0,
        0,
        0,
        0,
        1,
        0,
        0,
        -1,
        0,
        0,
        0,
        0,
        0,
        1
      ],
      "name": "ea87e4b92f7f48b08958134748b1b9bb.fbx"
    },
    {
      "children": [
        4,
        6
      ],
      "name": "RootNode"
    },
    {
      "children": [
        5
      ],
      "matrix": [
        1.6292067085035731e-07,
        3.3087220557816581e-24,
        0.99999988079069713,
        0,
        -2.9620100322904281e-08,
        0.67762887477874689,
        4.825727188674646e-15,
        0,
        -0.83179491758345381,
        -3.6358912413448984e-08,
        1.3551660213745375e-07,
        0,
        2.7991502520308131e-06,
        52.690696716308594,
        -64.037094116210938,
        1
      ],
      "name": "Box002"
    },
    {
      "mesh": 0,
      "name": "Box002_Material #45_0"
    },
    {
      "children": [
        7
      ],
      "matrix": [
        1.6292067073933501e-07,
        0,
        0.99999988079069713,
        0,
        -1.1039976293246213e-07,
        0.67762887477873857,
        1.7986405571091742e-14,
        0,
        -0.83179491758344337,
        -1.3551660079365133e-07,
        1.3551660204510595e-07,
        0,
        2.7991502520308131e-06,
        52.690696716308594,
        -64.037094116210938,
        1
      ],
      "name": "Object001"
    },
    {
      "mesh": 1,
      "name": "Object001__0"
    }
  ],
  "samplers": [
    {
      "magFilter": 9729,
      "minFilter": 9987,
      "wrapS": 10497,
      "wrapT": 10497
    }
  ],
  "scene": 0,
  "scenes": [
    {
      "name": "OSG_Scene",
      "nodes": [
        0
      ]
    }
  ],
  "textures": [
    {
      "sampler": 0,
      "source": 0
    },
    {
      "sampler": 0,
      "source": 1
    }
  ]
}

