<?xml version="1.0" encoding="UTF-8" standalone="no"?>

<svg xmlns="http://www.w3.org/2000/svg" version="1.1" width="24" height="24">
  <path
    style="fill:#bbb;"
    d="M 11.885742,2.5014432 C 11.107116,2.5104738 10.319849,2.6152827 9.5419923,2.8237088 5.3934244,3.9353141 2.4990232,7.7045765 2.4990233,11.99949 h 2.0019534 c 0,-3.3993673 2.2750571,-6.3623665 5.5585943,-7.2421876 2.69627,-0.7224639 5.506697,0.1112806 7.367187,2.0624999 L 15.80957,7.7553491 21.139649,10.825662 V 4.6752711 L 19.196289,5.798318 C 17.362262,3.6727267 14.675119,2.4690916 11.885742,2.5014432 Z m 7.615235,9.4980468 c 0,3.399367 -2.275057,6.368226 -5.558594,7.248047 -2.693644,0.72176 -5.5007998,-0.115525 -7.3613282,-2.064453 l 1.6113283,-0.931641 -5.3242191,-3.078125 -0.00586,6.15625 1.947266,-1.125 c 2.3443287,2.718862 6.08305,3.926046 9.648437,2.970703 4.148567,-1.111605 7.042969,-4.880868 7.042969,-9.175781 z"
  />
</svg>
