<?xml version="1.0" encoding="UTF-8" standalone="no"?>
<svg
   xmlns:dc="http://purl.org/dc/elements/1.1/"
   xmlns:cc="http://creativecommons.org/ns#"
   xmlns:rdf="http://www.w3.org/1999/02/22-rdf-syntax-ns#"
   xmlns:svg="http://www.w3.org/2000/svg"
   xmlns="http://www.w3.org/2000/svg"
   id="svg841"
   viewBox="0 0 16.933 16.933"
   version="1.1"
   height="64"
   width="64">
  <defs
     id="defs845" />
  <metadata
     id="metadata831">
    <rdf:RDF>
      <cc:Work
         rdf:about="">
        <dc:format>image/svg+xml</dc:format>
        <dc:type
           rdf:resource="http://purl.org/dc/dcmitype/StillImage" />
        <dc:title></dc:title>
      </cc:Work>
    </rdf:RDF>
  </metadata>
  <g
     id="g835"
     transform="translate(0 -280.07)">
    <circle
       id="circle833"
       stroke-width=".051195"
       stroke="#999"
       fill="#7f7f7f"
       r="8.3088"
       cy="288.53"
       cx="8.4667" />
  </g>
  <g
     id="g839"
     aria-label="i"
     style="font-feature-settings:normal;font-variant-caps:normal;font-variant-ligatures:normal;font-variant-numeric:normal"
     fill="#fff"
     transform="matrix(3.5203 0 0 3.5203 -826.9 -804.79)">
    <path
       id="path837"
       style=""
       d="m237.65 230.43v2.4058q0 0.11234-0.0685 0.18907-0.10413 0.12056-0.2932 0.12056-0.21373 0-0.31238-0.1507-0.0438-0.0685-0.0438-0.15893v-2.4058q0-0.16441 0.14249-0.24936 0.0986-0.0603 0.21647-0.0603 0.13975 0 0.24661 0.0795 0.11235 0.0877 0.11235 0.23018zm-0.35622-1.54q0.12057 0 0.23017 0.0685 0.21647 0.12878 0.21647 0.38088 0 0.17537-0.12056 0.30415-0.13153 0.14523-0.33156 0.14523-0.11235 0-0.21373-0.0548-0.23291-0.13153-0.23291-0.39732 0-0.20825 0.15618-0.33978 0.12879-0.10687 0.29594-0.10687z" />
  </g>
</svg>
