<?xml version="1.0" encoding="UTF-8" standalone="no"?>
<svg
   xmlns:dc="http://purl.org/dc/elements/1.1/"
   xmlns:cc="http://creativecommons.org/ns#"
   xmlns:rdf="http://www.w3.org/1999/02/22-rdf-syntax-ns#"
   xmlns:svg="http://www.w3.org/2000/svg"
   xmlns="http://www.w3.org/2000/svg"
   id="svg1133"
   version="1.1"
   viewBox="0 0 34.26 21.24">
  <metadata
     id="metadata1137">
    <rdf:RDF>
      <cc:Work
         rdf:about="">
        <dc:format>image/svg+xml</dc:format>
        <dc:type
           rdf:resource="http://purl.org/dc/dcmitype/StillImage" />
        <dc:title></dc:title>
      </cc:Work>
    </rdf:RDF>
  </metadata>
  <defs
     id="defs979">
    <style
       id="style977">.cls-1{fill:#b5b5b6;}.cls-2{fill:#fff;}.cls-3{fill:#0086d1;}</style>
  </defs>
  <g
     data-name="レイヤー2"
     id="レイヤー2">
    <g
       id="layer1">
      <polygon
         id="polygon983"
         points="11.24 10.4 10.47 8.48 10.47 8.48 8.57 7.71 8.57 7.71 8.56 7.71 8.56 7.71 8.56 7.71 6.62 8.44 6.62 8.44 5.89 10.4 5.89 10.4 5.89 10.4 5.89 10.4 5.89 10.4 6.62 12.36 6.62 12.36 8.56 13.09 8.56 13.09 8.56 13.09 8.57 13.09 8.57 13.09 10.46 12.31 10.46 12.31 11.24 10.4 11.24 10.4 11.24 10.4 11.24 10.4 11.24 10.4"
         class="cls-1" />
      <polygon
         id="polygon985"
         points="4.28 5.38 4.28 5.38 4.28 0 2.45 4.26 4.28 5.38"
         class="cls-2" />
      <polygon
         id="polygon987"
         points="2.45 4.26 0.82 6.1 4.28 5.38 2.45 4.26"
         class="cls-1" />
      <polygon
         id="polygon989"
         points="4.28 5.38 4.28 5.38 4.28 5.38 4.28 5.38"
         class="cls-3" />
      <polygon
         id="polygon991"
         points="4.28 5.38 4.28 5.38 0.82 6.1 0 10.4 4.28 5.38 4.28 5.38"
         class="cls-2" />
      <polygon
         id="polygon993"
         points="0 10.4 4.28 10.4 4.28 5.38 0 10.4"
         class="cls-1" />
      <rect
         id="rect995"
         transform="translate(-2.55 4.62) rotate(-45.1)"
         y="5.38"
         x="4.28"
         class="cls-3" />
      <polygon
         id="polygon997"
         points="4.28 5.38 4.28 10.4 5.52 7.35 4.28 5.38 4.28 5.38"
         class="cls-1" />
      <polygon
         id="polygon999"
         points="4.28 5.38 5.52 7.35 8.56 6.1 4.28 5.38 4.28 5.38"
         class="cls-1" />
      <polygon
         id="polygon1001"
         points="4.28 5.38 8.56 1.8 4.28 0 4.28 5.38 4.28 5.38"
         class="cls-1" />
      <polygon
         id="polygon1003"
         points="8.56 6.1 8.56 1.8 4.28 5.38 8.56 6.1"
         class="cls-1" />
      <polygon
         id="polygon1005"
         points="13.66 5.66 13.66 5.66 13.49 2.87 8.56 1.8 13.66 5.66"
         class="cls-2" />
      <polygon
         id="polygon1007"
         points="8.56 1.8 8.56 6.1 13.66 5.66 8.56 1.8"
         class="cls-1" />
      <polygon
         id="polygon1009"
         points="13.66 5.66 13.66 5.66 13.66 5.66 13.66 5.66"
         class="cls-3" />
      <polygon
         id="polygon1011"
         points="13.66 5.66 13.66 5.66 8.56 6.1 11.69 7.26 13.66 5.66 13.66 5.66"
         class="cls-1" />
      <polygon
         id="polygon1013"
         points="11.69 7.26 12.85 10.4 13.66 5.66 11.69 7.26"
         class="cls-1" />
      <rect
         id="rect1015"
         transform="translate(0.01 11.34) rotate(-45.1)"
         y="5.66"
         x="13.66"
         class="cls-3" />
      <polygon
         id="polygon1017"
         points="13.66 5.66 12.85 10.4 17.13 10.12 13.66 5.66 13.66 5.66"
         class="cls-1" />
      <polygon
         id="polygon1019"
         points="13.66 5.66 17.13 4.66 13.49 2.87 13.66 5.66 13.66 5.66"
         class="cls-2" />
      <polyline
         id="polyline1021"
         points="13.66 5.66 13.66 5.66 17.13 10.12 17.13 4.66 13.66 5.66"
         class="cls-2" />
      <polygon
         id="polygon1023"
         points="4.28 15.41 4.28 15.41 4.28 10.4 0 10.4 4.28 15.41"
         class="cls-1" />
      <polygon
         id="polygon1025"
         points="0 10.4 0.82 14.7 4.28 15.41 0 10.4"
         class="cls-2" />
      <polygon
         id="polygon1027"
         points="4.28 15.41 4.28 15.41 4.28 15.41 4.28 15.41"
         class="cls-3" />
      <polygon
         id="polygon1029"
         points="4.28 15.41 4.28 15.41 0.82 14.7 2.48 16.5 4.28 15.41 4.28 15.41"
         class="cls-2" />
      <polygon
         id="polygon1031"
         points="2.48 16.5 4.28 17.91 4.28 15.41 2.48 16.5"
         class="cls-2" />
      <rect
         id="rect1033"
         transform="translate(-9.66 7.57) rotate(-45.1)"
         y="15.41"
         x="4.28"
         class="cls-3" />
      <polygon
         id="polygon1035"
         points="4.28 15.41 4.28 17.91 8.56 18.99 4.28 15.41 4.28 15.41"
         class="cls-2" />
      <polygon
         id="polygon1037"
         points="4.28 15.41 8.56 18.99 8.56 14.7 4.28 15.41 4.28 15.41"
         class="cls-1" />
      <polygon
         id="polygon1039"
         points="4.28 15.41 5.54 13.44 4.28 10.4 4.28 15.41 4.28 15.41"
         class="cls-1" />
      <polygon
         id="polygon1041"
         points="8.56 14.7 5.54 13.44 4.28 15.41 8.56 14.7"
         class="cls-1" />
      <polygon
         id="polygon1043"
         points="13.48 17.2 13.48 17.2 12.85 10.4 11.56 13.4 13.48 17.2"
         class="cls-1" />
      <polygon
         id="polygon1045"
         points="11.56 13.4 8.56 14.7 13.48 17.2 11.56 13.4"
         class="cls-1" />
      <polygon
         id="polygon1047"
         points="13.48 17.2 13.48 17.2 13.48 17.2 13.48 17.2"
         class="cls-3" />
      <polygon
         id="polygon1049"
         points="13.48 17.2 13.48 17.2 8.56 14.7 8.56 18.99 13.48 17.2 13.48 17.2"
         class="cls-1" />
      <rect
         id="rect1051"
         transform="translate(-8.22 14.6) rotate(-45.1)"
         y="17.2"
         x="13.48"
         class="cls-3" />
      <polygon
         id="polygon1053"
         points="13.48 17.2 17.13 10.12 12.85 10.4 13.48 17.2 13.48 17.2"
         class="cls-1" />
      <polygon
         id="polygon1055"
         points="17.13 21.24 17.13 10.12 13.48 17.2 17.13 21.24"
         class="cls-2" />
      <polygon
         id="polygon1057"
         points="23.02 10.4 23.78 8.48 23.78 8.48 25.69 7.71 25.69 7.71 25.69 7.71 25.7 7.71 25.7 7.71 27.64 8.44 27.64 8.44 28.37 10.4 28.37 10.4 28.37 10.4 28.37 10.4 28.37 10.4 27.64 12.36 27.64 12.36 25.7 13.09 25.7 13.09 25.69 13.09 25.69 13.09 25.69 13.09 23.79 12.31 23.79 12.31 23.02 10.4 23.02 10.4 23.02 10.4 23.02 10.4 23.02 10.4"
         class="cls-1" />
      <polygon
         id="polygon1059"
         points="29.98 5.38 29.98 5.38 29.98 0 31.81 4.26 29.98 5.38"
         class="cls-2" />
      <polygon
         id="polygon1061"
         points="31.81 4.26 33.44 6.1 29.98 5.38 31.81 4.26"
         class="cls-1" />
      <polygon
         id="polygon1063"
         points="29.98 5.38 29.98 5.38 29.98 5.38 29.98 5.38"
         class="cls-3" />
      <polygon
         id="polygon1065"
         points="29.98 5.38 29.98 5.38 33.44 6.1 34.26 10.4 29.98 5.38 29.98 5.38"
         class="cls-2" />
      <polygon
         id="polygon1067"
         points="34.26 10.4 29.98 10.4 29.98 5.38 34.26 10.4"
         class="cls-1" />
      <rect
         id="rect1069"
         transform="translate(4.94 22.73) rotate(-44.9)"
         y="5.38"
         x="29.98"
         class="cls-3" />
      <polygon
         id="polygon1071"
         points="29.98 5.38 29.98 10.4 28.73 7.35 29.98 5.38 29.98 5.38"
         class="cls-1" />
      <polygon
         id="polygon1073"
         points="29.98 5.38 28.73 7.35 25.69 6.1 29.98 5.38 29.98 5.38"
         class="cls-1" />
      <polygon
         id="polygon1075"
         points="29.98 5.38 25.69 1.8 29.98 0 29.98 5.38 29.98 5.38"
         class="cls-1" />
      <polygon
         id="polygon1077"
         points="25.69 6.1 25.69 1.8 29.98 5.38 25.69 6.1"
         class="cls-1" />
      <polygon
         id="polygon1079"
         points="20.6 5.66 20.6 5.66 20.76 2.87 25.69 1.8 20.6 5.66"
         class="cls-2" />
      <polygon
         id="polygon1081"
         points="25.69 1.8 25.69 6.1 20.6 5.66 25.69 1.8"
         class="cls-1" />
      <polygon
         id="polygon1083"
         points="20.6 5.66 20.6 5.66 20.6 5.66 20.6 5.66"
         class="cls-3" />
      <polygon
         id="polygon1085"
         points="20.6 5.66 20.6 5.66 25.69 6.1 22.57 7.26 20.6 5.66 20.6 5.66"
         class="cls-1" />
      <polygon
         id="polygon1087"
         points="22.57 7.26 21.41 10.4 20.6 5.66 22.57 7.26"
         class="cls-1" />
      <rect
         id="rect1089"
         transform="translate(2.01 16.19) rotate(-44.9)"
         y="5.66"
         x="20.6"
         class="cls-3" />
      <polygon
         id="polygon1091"
         points="20.6 5.66 21.41 10.4 17.13 10.12 20.6 5.66 20.6 5.66"
         class="cls-1" />
      <polygon
         id="polygon1093"
         points="20.6 5.66 17.13 4.66 20.76 2.87 20.6 5.66 20.6 5.66"
         class="cls-2" />
      <polyline
         id="polyline1095"
         points="20.6 5.66 20.6 5.66 17.13 10.12 17.13 4.66 20.6 5.66"
         class="cls-2" />
      <polygon
         id="polygon1097"
         points="29.98 15.41 29.98 15.41 29.98 10.4 34.26 10.4 29.98 15.41"
         class="cls-1" />
      <polygon
         id="polygon1099"
         points="34.26 10.4 33.44 14.7 29.98 15.41 34.26 10.4"
         class="cls-2" />
      <polygon
         id="polygon1101"
         points="29.98 15.41 29.98 15.41 29.98 15.41 29.98 15.41"
         class="cls-3" />
      <polygon
         id="polygon1103"
         points="29.98 15.41 29.98 15.41 33.44 14.7 31.78 16.5 29.98 15.41 29.98 15.41"
         class="cls-2" />
      <polygon
         id="polygon1105"
         points="31.78 16.5 29.98 17.91 29.98 15.41 31.78 16.5"
         class="cls-2" />
      <rect
         id="rect1107"
         transform="translate(-2.14 25.66) rotate(-44.9)"
         y="15.41"
         x="29.98"
         class="cls-3" />
      <polygon
         id="polygon1109"
         points="29.98 15.41 29.98 17.91 25.69 18.99 29.98 15.41 29.98 15.41"
         class="cls-2" />
      <polygon
         id="polygon1111"
         points="29.98 15.41 25.69 18.99 25.69 14.7 29.98 15.41 29.98 15.41"
         class="cls-1" />
      <polygon
         id="polygon1113"
         points="29.98 15.41 28.72 13.44 29.98 10.4 29.98 15.41 29.98 15.41"
         class="cls-1" />
      <polygon
         id="polygon1115"
         points="25.69 14.7 28.72 13.44 29.98 15.41 25.69 14.7"
         class="cls-1" />
      <polygon
         id="polygon1117"
         points="20.72 17.2 20.72 17.2 21.41 10.4 22.7 13.4 20.72 17.2"
         class="cls-1" />
      <polygon
         id="polygon1119"
         points="22.7 13.4 25.69 14.7 20.72 17.2 22.7 13.4"
         class="cls-1" />
      <polygon
         id="polygon1121"
         points="20.72 17.2 20.72 17.2 20.72 17.2 20.72 17.2"
         class="cls-3" />
      <polygon
         id="polygon1123"
         points="20.72 17.2 20.72 17.2 25.69 14.7 25.69 18.99 20.72 17.2 20.72 17.2"
         class="cls-1" />
      <rect
         id="rect1125"
         transform="translate(-6.1 19.64) rotate(-44.9)"
         y="17.2"
         x="20.72"
         class="cls-3" />
      <polygon
         id="polygon1127"
         points="20.72 17.2 17.13 10.12 21.41 10.4 20.72 17.2 20.72 17.2"
         class="cls-1" />
      <polygon
         id="polygon1129"
         points="17.13 21.24 17.13 10.12 20.72 17.2 17.13 21.24"
         class="cls-2" />
    </g>
  </g>
</svg>
